<?xml version="1.0" encoding="utf-8"?>
<!-- Generator: Adobe Illustrator 26.0.1, SVG Export Plug-In . SVG Version: 6.00 Build 0)  -->
<svg version="1.1" id="Layer_1" xmlns="http://www.w3.org/2000/svg" xmlns:xlink="http://www.w3.org/1999/xlink" x="0px" y="0px"
	 viewBox="0 0 1080 1080" style="enable-background:new 0 0 1080 1080;" xml:space="preserve">
<style type="text/css">
	.st0{fill:#E3B34C;}
	.st1{font-family:'Montserrat-Bold';}
	.st2{font-size:72.1027px;}
	.st3{fill:#5AB381;}
	.st4{fill:#FFFFFF;}
	.st5{font-family:'Montserrat-Medium';}
	.st6{font-size:55.2632px;}
</style>
<g>
	<text transform="matrix(1 0 0 1 366.8803 530.9856)" class="st0 st1 st2">ABDUL’s</text>
	<rect x="367.1" y="542.51" class="st3" width="321.65" height="64.34"/>
	<text transform="matrix(1 0 0 1 401.895 591.0081)" class="st4 st5 st6">BlogPost</text>
	<rect x="700.77" y="488.07" class="st0" width="12.99" height="112.92"/>
	<path class="st3" d="M707.71,610.3c-2.3-2.3-4.61-4.61-6.91-6.91c4.32,0,8.63,0,12.95,0"/>
	<path class="st3" d="M701.95,480.41c0-1.35,0-2.71,0-4.06c0.08-1.82,3.08-3.09,5.88-2.94c2.11,0.11,4.01,1.03,4.54,2.27
		c0.08,1.55,0.16,3.09,0.23,4.64"/>
	<rect x="700.77" y="482.39" class="st3" width="12.99" height="2.53"/>
</g>
</svg>
